#Comment line ignore any data following # character 
#Hierarchical Translation and Rotation (.htr) file 
[Header]	
#Header keywords are followed by a single value 
FileType HTR		#Single word string
DataType HTRS		#Translation followed by rotation and scale data
FileVersion 1		#integer
NumSegments 84		#integer
NumFrames 2		#integer
DataFrameRate 30		#integer, data frame rate in this file
EulerRotationOrder ZYX
CalibrationUnits mm
RotationUnits Degrees
GlobalAxisofGravity Y
BoneLengthAxis Y
ScaleFactor 1.00
[SegmentNames&Hierarchy]
#CHILD	PARENT
MASTER GLOBAL
root MASTER
chest root
L_mid_tent01 root
R_mid_tent01 root
spine01 root
Bip01_Neck chest
L_humerus chest
R_humerus chest
weapon_bone chest
Bip01_Head Bip01_Neck
eye_left_bone Bip01_Head
eye_right_bone Bip01_Head
L_forearm L_humerus
L_front_hand L_forearm
L_weapon_bone L_forearm
L_front_hand01_01 L_front_hand
L_front_hand02_01 L_front_hand
L_front_hand03_01 L_front_hand
L_front_hand01_02 L_front_hand01_01
L_front_hand02_02 L_front_hand02_01
L_front_hand03_02 L_front_hand03_01
R_forearm R_humerus
R_front_hand R_forearm
R_weapon_bone R_forearm
R_front_hand01_01 R_front_hand
R_front_hand02_01 R_front_hand
R_front_hand03_01 R_front_hand
R_front_hand01_02 R_front_hand01_01
R_front_hand02_02 R_front_hand02_01
R_front_hand03_02 R_front_hand03_01
null_rope01_connect L_mid_tent01
Rope1_Seg01 null_rope01_connect
Rope1_Seg02 Rope1_Seg01
Rope1_Seg03 Rope1_Seg02
Rope1_Seg04 Rope1_Seg03
Rope1_Seg05 Rope1_Seg04
Rope1_Seg06 Rope1_Seg05
Rope1_Seg07 Rope1_Seg06
Rope1_Seg09 Rope1_Seg07
L_mid_hand01 Rope1_Seg09
L_mid_hand02 Rope1_Seg09
L_mid_hand03 Rope1_Seg09
null_rope02_connect R_mid_tent01
Rope2_Seg01 null_rope02_connect
Rope2_Seg02 Rope2_Seg01
Rope2_Seg03 Rope2_Seg02
Rope2_Seg04 Rope2_Seg03
Rope2_Seg05 Rope2_Seg04
Rope2_Seg06 Rope2_Seg05
Rope2_Seg07 Rope2_Seg06
Rope2_Seg09 Rope2_Seg07
R_mid_hand01 Rope2_Seg09
R_mid_hand02 Rope2_Seg09
R_mid_hand03 Rope2_Seg09
spine02 spine01
spine03 spine02
pelvis spine03
null_rope03_connect pelvis
null_rope04_connect pelvis
Rope3_Seg01 null_rope03_connect
Rope3_Seg02 Rope3_Seg01
Rope3_Seg03 Rope3_Seg02
Rope3_Seg04 Rope3_Seg03
Rope3_Seg05 Rope3_Seg04
Rope3_Seg06 Rope3_Seg05
Rope3_Seg07 Rope3_Seg06
Rope3_Seg08 Rope3_Seg07
Rope3_Seg09 Rope3_Seg08
R_rear_hand01 Rope3_Seg09
R_rear_hand02 Rope3_Seg09
R_rear_hand03 Rope3_Seg09
Rope4_Seg01 null_rope04_connect
Rope4_Seg02 Rope4_Seg01
Rope4_Seg03 Rope4_Seg02
Rope4_Seg04 Rope4_Seg03
Rope4_Seg05 Rope4_Seg04
Rope4_Seg06 Rope4_Seg05
Rope4_Seg07 Rope4_Seg06
Rope4_Seg08 Rope4_Seg07
Rope4_Seg09 Rope4_Seg08
L_rear_hand01 Rope4_Seg09
L_rear_hand02 Rope4_Seg09
L_rear_hand03 Rope4_Seg09
[BasePosition]
#SegmentName Tx, Ty, Tz, Rx, Ry, Rz, BoneLength
MASTER 0.000000 0.000000 0.000000 -90.000000 0.000000 0.000000 10.000000 
root 0.000000 0.000000 0.000000 0.000000 0.000000 0.000000 10.000000 
chest 0.000000 0.000000 0.000000 0.000000 0.000000 0.000000 10.000000 
L_mid_tent01 0.000000 0.000000 0.000000 0.000000 0.000000 0.000000 10.000000 
R_mid_tent01 0.000000 0.000000 0.000000 0.000000 0.000000 0.000000 10.000000 
spine01 0.000000 0.000000 0.000000 0.000000 0.000000 0.000000 10.000000 
Bip01_Neck 0.000000 0.000000 0.000000 0.000000 0.000000 0.000000 10.000000 
L_humerus 0.000000 0.000000 0.000000 0.000000 0.000000 0.000000 10.000000 
R_humerus 0.000000 0.000000 0.000000 0.000000 0.000000 0.000000 10.000000 
weapon_bone 0.000000 0.000000 0.000000 0.000000 0.000000 0.000000 10.000000 
Bip01_Head 0.000000 0.000000 0.000000 0.000000 0.000000 0.000000 10.000000 
eye_left_bone 0.000000 0.000000 0.000000 0.000000 0.000000 0.000000 10.000000 
eye_right_bone 0.000000 0.000000 0.000000 0.000000 0.000000 0.000000 10.000000 
L_forearm 0.000000 0.000000 0.000000 0.000000 0.000000 0.000000 10.000000 
L_front_hand 0.000000 0.000000 0.000000 0.000000 0.000000 0.000000 10.000000 
L_weapon_bone 0.000000 0.000000 0.000000 0.000000 0.000000 0.000000 10.000000 
L_front_hand01_01 0.000000 0.000000 0.000000 0.000000 0.000000 0.000000 10.000000 
L_front_hand02_01 0.000000 0.000000 0.000000 0.000000 0.000000 0.000000 10.000000 
L_front_hand03_01 0.000000 0.000000 0.000000 0.000000 0.000000 0.000000 10.000000 
L_front_hand01_02 0.000000 0.000000 0.000000 0.000000 0.000000 0.000000 10.000000 
L_front_hand02_02 0.000000 0.000000 0.000000 0.000000 0.000000 0.000000 10.000000 
L_front_hand03_02 0.000000 0.000000 0.000000 0.000000 0.000000 0.000000 10.000000 
R_forearm 0.000000 0.000000 0.000000 0.000000 0.000000 0.000000 10.000000 
R_front_hand 0.000000 0.000000 0.000000 0.000000 0.000000 0.000000 10.000000 
R_weapon_bone 0.000000 0.000000 0.000000 0.000000 0.000000 0.000000 10.000000 
R_front_hand01_01 0.000000 0.000000 0.000000 0.000000 0.000000 0.000000 10.000000 
R_front_hand02_01 0.000000 0.000000 0.000000 0.000000 0.000000 0.000000 10.000000 
R_front_hand03_01 0.000000 0.000000 0.000000 0.000000 0.000000 0.000000 10.000000 
R_front_hand01_02 0.000000 0.000000 0.000000 0.000000 0.000000 0.000000 10.000000 
R_front_hand02_02 0.000000 0.000000 0.000000 0.000000 0.000000 0.000000 10.000000 
R_front_hand03_02 0.000000 0.000000 0.000000 0.000000 0.000000 0.000000 10.000000 
null_rope01_connect 0.000000 0.000000 0.000000 0.000000 0.000000 0.000000 10.000000 
Rope1_Seg01 0.000000 0.000000 0.000000 0.000000 0.000000 0.000000 10.000000 
Rope1_Seg02 0.000000 0.000000 0.000000 0.000000 0.000000 0.000000 10.000000 
Rope1_Seg03 0.000000 0.000000 0.000000 0.000000 0.000000 0.000000 10.000000 
Rope1_Seg04 0.000000 0.000000 0.000000 0.000000 0.000000 0.000000 10.000000 
Rope1_Seg05 0.000000 0.000000 0.000000 0.000000 0.000000 0.000000 10.000000 
Rope1_Seg06 0.000000 0.000000 0.000000 0.000000 0.000000 0.000000 10.000000 
Rope1_Seg07 0.000000 0.000000 0.000000 0.000000 0.000000 0.000000 10.000000 
Rope1_Seg09 0.000000 0.000000 0.000000 0.000000 0.000000 0.000000 10.000000 
L_mid_hand01 0.000000 0.000000 0.000000 0.000000 0.000000 0.000000 10.000000 
L_mid_hand02 0.000000 0.000000 0.000000 0.000000 0.000000 0.000000 10.000000 
L_mid_hand03 0.000000 0.000000 0.000000 0.000000 0.000000 0.000000 10.000000 
null_rope02_connect 0.000000 0.000000 0.000000 0.000000 0.000000 0.000000 10.000000 
Rope2_Seg01 0.000000 0.000000 0.000000 0.000000 0.000000 0.000000 10.000000 
Rope2_Seg02 0.000000 0.000000 0.000000 0.000000 0.000000 0.000000 10.000000 
Rope2_Seg03 0.000000 0.000000 0.000000 0.000000 0.000000 0.000000 10.000000 
Rope2_Seg04 0.000000 0.000000 0.000000 0.000000 0.000000 0.000000 10.000000 
Rope2_Seg05 0.000000 0.000000 0.000000 0.000000 0.000000 0.000000 10.000000 
Rope2_Seg06 0.000000 0.000000 0.000000 0.000000 0.000000 0.000000 10.000000 
Rope2_Seg07 0.000000 0.000000 0.000000 0.000000 0.000000 0.000000 10.000000 
Rope2_Seg09 0.000000 0.000000 0.000000 0.000000 0.000000 0.000000 10.000000 
R_mid_hand01 0.000000 0.000000 0.000000 0.000000 0.000000 0.000000 10.000000 
R_mid_hand02 0.000000 0.000000 0.000000 0.000000 0.000000 0.000000 10.000000 
R_mid_hand03 0.000000 0.000000 0.000000 0.000000 0.000000 0.000000 10.000000 
spine02 0.000000 0.000000 0.000000 0.000000 0.000000 0.000000 10.000000 
spine03 0.000000 0.000000 0.000000 0.000000 0.000000 0.000000 10.000000 
pelvis 0.000000 0.000000 0.000000 0.000000 0.000000 0.000000 10.000000 
null_rope03_connect 0.000000 0.000000 0.000000 0.000000 0.000000 0.000000 10.000000 
null_rope04_connect 0.000000 0.000000 0.000000 0.000000 0.000000 0.000000 10.000000 
Rope3_Seg01 0.000000 0.000000 0.000000 0.000000 0.000000 0.000000 10.000000 
Rope3_Seg02 0.000000 0.000000 0.000000 0.000000 0.000000 0.000000 10.000000 
Rope3_Seg03 0.000000 0.000000 0.000000 0.000000 0.000000 0.000000 10.000000 
Rope3_Seg04 0.000000 0.000000 0.000000 0.000000 0.000000 0.000000 10.000000 
Rope3_Seg05 0.000000 0.000000 0.000000 0.000000 0.000000 0.000000 10.000000 
Rope3_Seg06 0.000000 0.000000 0.000000 0.000000 0.000000 0.000000 10.000000 
Rope3_Seg07 0.000000 0.000000 0.000000 0.000000 0.000000 0.000000 10.000000 
Rope3_Seg08 0.000000 0.000000 0.000000 0.000000 0.000000 0.000000 10.000000 
Rope3_Seg09 0.000000 0.000000 0.000000 0.000000 0.000000 0.000000 10.000000 
R_rear_hand01 0.000000 0.000000 0.000000 0.000000 0.000000 0.000000 10.000000 
R_rear_hand02 0.000000 0.000000 0.000000 0.000000 0.000000 0.000000 10.000000 
R_rear_hand03 0.000000 0.000000 0.000000 0.000000 0.000000 0.000000 10.000000 
Rope4_Seg01 0.000000 0.000000 0.000000 0.000000 0.000000 0.000000 10.000000 
Rope4_Seg02 0.000000 0.000000 0.000000 0.000000 0.000000 0.000000 10.000000 
Rope4_Seg03 0.000000 0.000000 0.000000 0.000000 0.000000 0.000000 10.000000 
Rope4_Seg04 0.000000 0.000000 0.000000 0.000000 0.000000 0.000000 10.000000 
Rope4_Seg05 0.000000 0.000000 0.000000 0.000000 0.000000 0.000000 10.000000 
Rope4_Seg06 0.000000 0.000000 0.000000 0.000000 0.000000 0.000000 10.000000 
Rope4_Seg07 0.000000 0.000000 0.000000 0.000000 0.000000 0.000000 10.000000 
Rope4_Seg08 0.000000 0.000000 0.000000 0.000000 0.000000 0.000000 10.000000 
Rope4_Seg09 0.000000 0.000000 0.000000 0.000000 0.000000 0.000000 10.000000 
L_rear_hand01 0.000000 0.000000 0.000000 0.000000 0.000000 0.000000 10.000000 
L_rear_hand02 0.000000 0.000000 0.000000 0.000000 0.000000 0.000000 10.000000 
L_rear_hand03 0.000000 0.000000 0.000000 0.000000 0.000000 0.000000 10.000000 
#Beginning of Data. Separated by tabs
#Fr	Tx	Ty	Tz	Rx	Ry	Rz	SF
[MASTER]
36 0.000000 0.000000 0.000000 0.001660 0.001660 0.001660 0.000000
37 0.000000 0.000000 0.000000 0.001660 0.001660 0.001660 0.000000
[root]
36 -16.502245 -199.343781 1093.534668 -85.747307 -61.785316 -93.080688 1111.678223
37 -16.502245 -199.343781 1093.534668 -85.747307 -61.785316 -93.080688 1111.678223
[chest]
36 -84.512650 -34.090519 0.000000 2.244244 -1.290124 -120.073128 91.129311
37 -84.512650 -34.090519 0.000000 2.242548 -1.293067 -120.141693 91.129311
[L_mid_tent01]
36 27.299500 22.177483 -249.917984 -16.998997 1.745520 129.214798 252.380859
37 27.299500 22.177483 -249.917984 -17.009048 1.692558 128.837265 252.380859
[R_mid_tent01]
36 23.228794 24.509907 226.238495 -175.003204 1.968536 118.814941 228.744751
37 23.228794 24.509907 226.238495 -174.993362 1.956453 118.506584 228.744751
[spine01]
36 -0.361383 -0.195265 0.000000 -0.000001 -0.000007 22.052340 0.410763
37 -0.361383 -0.195265 0.000000 -0.000001 -0.000007 22.052340 0.410763
[Bip01_Neck]
36 165.484543 71.581718 0.000119 175.896118 1.177290 24.871183 180.302734
37 165.484543 71.581718 0.000119 175.896118 1.177290 24.871183 180.302734
[L_humerus]
36 -13.983130 -135.272980 -120.471481 -91.668335 0.804969 -167.458282 181.680161
37 -13.983130 -135.272980 -120.471481 -91.668335 0.804969 -167.458282 181.680161
[R_humerus]
36 -13.983309 -135.273102 125.287651 103.000740 1.729733 -169.272232 184.909012
37 -13.983309 -135.273102 125.287651 103.000740 1.729733 -169.272232 184.909012
[weapon_bone]
36 235.964890 -300.705902 0.000000 0.000000 -89.951546 -128.212341 382.234833
37 235.964890 -300.705902 0.000000 0.000000 -89.951546 -128.212341 382.234833
[Bip01_Head]
36 102.819794 23.735451 5.410404 3.150731 3.423701 -20.839088 105.662453
37 102.819794 23.735449 5.410404 3.150731 3.423701 -20.839088 105.662453
[eye_left_bone]
36 -24.626970 125.451866 -64.772606 0.000000 -90.000000 -99.840431 143.318359
37 -24.626970 125.451866 -64.772606 0.000000 -90.000000 -99.840431 143.318359
[eye_right_bone]
36 -24.626970 125.451866 64.327362 0.000000 -89.960434 80.159386 143.117676
37 -24.626970 125.451866 64.327362 0.000000 -89.960434 80.159386 143.117676
[L_forearm]
36 322.776093 0.000000 -0.000119 0.000017 0.002347 -89.149834 322.776093
37 322.776093 0.000000 -0.000119 0.000017 0.002347 -89.149834 322.776093
[L_front_hand]
36 241.149185 -0.042021 -3.300071 -177.731186 -0.051895 -80.147034 241.171753
37 241.149185 -0.042021 -3.300071 -177.731445 -0.052312 -80.136688 241.171753
[L_weapon_bone]
36 156.183838 0.000000 0.000000 0.000014 0.000007 0.000001 156.183838
37 156.183838 0.000000 0.000000 0.000014 0.000007 0.000001 156.183838
[L_front_hand01_01]
36 86.095154 20.947098 -0.655860 0.405585 -0.442306 -4.620490 88.609184
37 86.095154 20.947098 -0.655860 0.405585 -0.442306 -4.620490 88.609184
[L_front_hand02_01]
36 86.935165 -11.437475 24.513514 116.959450 3.630817 1.495453 91.046425
37 86.935165 -11.437475 24.513514 116.959450 3.630817 1.495453 91.046425
[L_front_hand03_01]
36 86.637497 -14.123976 -20.424902 -118.420097 -4.656303 -0.152527 90.126129
37 86.637497 -14.123976 -20.424902 -118.420097 -4.656303 -0.152527 90.126129
[L_front_hand01_02]
36 71.020905 -0.000179 0.000030 0.000004 -0.000005 -8.379269 71.020905
37 71.020905 -0.000179 0.000030 0.000004 -0.000005 -8.379269 71.020905
[L_front_hand02_02]
36 71.020927 -0.000119 0.000060 -0.000005 -0.000004 -8.379259 71.020927
37 71.020927 -0.000119 0.000060 -0.000005 -0.000004 -8.379259 71.020927
[L_front_hand03_02]
36 71.020905 -0.000060 0.000060 0.000015 -0.000040 -8.379267 71.020905
37 71.020905 -0.000060 0.000060 0.000015 -0.000040 -8.379267 71.020905
[R_forearm]
36 322.776428 -0.000060 0.000030 0.209486 -0.037214 -80.955322 322.776428
37 322.776428 -0.000060 0.000030 0.209146 -0.036704 -81.005898 322.776428
[R_front_hand]
36 238.847015 -0.006795 2.210259 -1.674585 -0.424045 -92.947868 238.857239
37 238.847015 -0.006795 2.210259 -1.674912 -0.423517 -92.928383 238.857239
[R_weapon_bone]
36 155.664093 0.002503 -0.000030 0.003487 0.001180 -90.988930 155.664078
37 155.664093 0.002503 -0.000030 0.003487 0.001180 -90.988930 155.664078
[R_front_hand01_01]
36 87.624611 14.231146 22.918642 -116.960205 3.496675 -1.324138 91.683487
37 87.624611 14.231146 22.918642 -116.960213 3.496675 -1.324139 91.683487
[R_front_hand02_01]
36 89.356956 14.367283 -19.491137 118.419647 -4.257089 0.609827 92.579636
37 89.356956 14.367283 -19.491137 118.419647 -4.257089 0.609827 92.579636
[R_front_hand03_01]
36 87.286232 -22.307278 -0.143439 -0.387970 -0.231462 4.232001 90.091743
37 87.286232 -22.307278 -0.143439 -0.387970 -0.231462 4.232001 90.091743
[R_front_hand01_02]
36 71.020905 0.000060 0.000119 -0.000005 -0.000020 8.379271 71.020905
37 71.020905 0.000060 0.000119 -0.000005 -0.000020 8.379271 71.020905
[R_front_hand02_02]
36 71.020844 -0.000030 -0.000119 0.000000 -0.000021 8.379271 71.020836
37 71.020844 -0.000030 -0.000119 0.000000 -0.000021 8.379271 71.020836
[R_front_hand03_02]
36 71.020905 0.000000 0.000030 -0.000001 -0.000020 8.379275 71.020905
37 71.020905 0.000000 0.000030 -0.000001 -0.000020 8.379275 71.020905
[null_rope01_connect]
36 328.732483 0.000000 -0.000238 111.396675 -73.157494 -88.721230 328.732483
37 328.732483 0.000000 -0.000238 111.604767 -73.158508 -88.541481 328.732483
[Rope1_Seg01]
36 0.000000 0.000000 0.000000 75.701584 20.150105 82.683937 0.000000
37 0.000000 0.000000 0.000000 75.647987 21.063326 82.965889 0.000000
[Rope1_Seg02]
36 139.999863 -0.000179 0.000000 59.637020 -12.047016 45.720013 139.999863
37 139.999863 -0.000179 0.000000 58.897099 -12.437191 46.410412 139.999863
[Rope1_Seg03]
36 139.999924 0.000060 -0.000060 56.721809 13.897792 18.240677 139.999924
37 139.999924 0.000060 -0.000060 55.686401 13.281619 17.706039 139.999924
[Rope1_Seg04]
36 139.999924 -0.000060 -0.000119 24.014265 46.175079 -2.792904 139.999924
37 139.999924 -0.000060 -0.000119 25.932001 46.452072 -1.328979 139.999924
[Rope1_Seg05]
36 139.999832 0.000119 -0.000060 -0.131298 18.919865 -10.589375 139.999832
37 139.999832 0.000119 -0.000060 -0.093379 19.308989 -10.775864 139.999832
[Rope1_Seg06]
36 139.999954 0.000119 -0.000060 -0.417891 8.024825 -4.634755 139.999954
37 139.999954 0.000119 -0.000060 -0.427443 8.227819 -4.755879 139.999954
[Rope1_Seg07]
36 139.999985 0.000060 0.000000 -0.118681 2.128526 -1.218656 139.999985
37 139.999985 0.000060 0.000000 -0.124133 2.208815 -1.264619 139.999985
[Rope1_Seg09]
36 121.602913 0.000119 -0.000089 -89.793175 -1.359789 0.847147 121.602913
37 121.602913 0.000119 -0.000089 -89.793175 -1.359789 0.847147 121.602913
[L_mid_hand01]
36 103.859421 1.038730 8.195221 104.352036 0.341479 -0.444583 104.187431
37 103.859421 1.038730 8.195221 104.352036 0.341479 -0.444583 104.187431
[L_mid_hand02]
36 105.572853 -4.139662 -10.864139 -135.608444 3.905687 -3.381056 106.211075
37 105.572853 -4.139662 -10.864139 -135.608444 3.905687 -3.381056 106.211075
[L_mid_hand03]
36 104.641464 17.579376 -3.913581 -18.761515 -0.324361 2.942912 106.179977
37 104.641464 17.579376 -3.913581 -18.761518 -0.324361 2.942912 106.179977
[null_rope02_connect]
36 328.732849 0.000179 -0.000119 123.843491 84.465576 -89.162605 328.732849
37 328.732849 0.000179 -0.000119 124.284691 84.444412 -89.045547 328.732849
[Rope2_Seg01]
36 0.000076 0.000111 0.000153 -5.534666 50.970505 107.028313 0.000204
37 0.000076 0.000111 0.000153 -5.596513 51.061386 106.947838 0.000204
[Rope2_Seg02]
36 139.999741 -0.000060 -0.000119 -18.121159 -56.943890 -39.274143 139.999756
37 139.999741 -0.000060 -0.000119 -18.044008 -56.453556 -38.338905 139.999756
[Rope2_Seg03]
36 140.000107 0.000030 0.000000 -24.686508 -13.455668 -27.052355 140.000107
37 140.000107 0.000030 0.000000 -25.099373 -14.009321 -27.451420 140.000107
[Rope2_Seg04]
36 139.999802 0.000000 -0.000060 -20.798315 -11.858307 -33.209686 139.999802
37 139.999802 0.000000 -0.000060 -20.756807 -11.839236 -32.922871 139.999802
[Rope2_Seg05]
36 139.999985 -0.000060 0.000119 -10.934953 1.810897 -31.125313 139.999985
37 139.999985 -0.000060 0.000119 -11.115756 1.677639 -31.408373 139.999985
[Rope2_Seg06]
36 139.999893 -0.000030 -0.000119 -1.845213 3.322710 -12.271185 139.999893
37 139.999893 -0.000030 -0.000119 -1.878559 3.341007 -12.373753 139.999893
[Rope2_Seg07]
36 139.999893 0.000060 -0.000060 -0.278455 1.405982 -4.672142 139.999893
37 139.999893 0.000060 -0.000060 -0.286356 1.426562 -4.741609 139.999893
[Rope2_Seg09]
36 121.338966 0.000089 -0.000060 33.793236 -1.359788 -0.847141 121.338966
37 121.338966 0.000089 -0.000060 33.793236 -1.359788 -0.847141 121.338966
[R_mid_hand01]
36 104.680779 11.144459 -10.335981 -47.384266 2.963523 5.452605 105.778534
37 104.680779 11.144459 -10.335981 -47.384258 2.963522 5.452604 105.778534
[R_mid_hand02]
36 104.070427 2.443552 8.231699 75.626297 -2.250001 1.111093 104.424065
37 104.070427 2.443552 8.231699 75.626297 -2.250001 1.111093 104.424065
[R_mid_hand03]
36 106.028137 -11.221827 -5.996406 -164.381927 2.495983 -6.140520 106.788818
37 106.028137 -11.221827 -5.996406 -164.381912 2.495983 -6.140520 106.788818
[spine02]
36 129.756927 0.001550 0.000119 -3.615289 -2.839072 48.808563 129.756927
37 129.756927 0.001550 0.000119 -3.609232 -2.846666 48.658276 129.756927
[spine03]
36 79.115631 0.000000 -0.000119 5.699872 8.352036 53.877861 79.115631
37 79.115631 0.000000 -0.000119 5.683457 8.342651 53.730881 79.115631
[pelvis]
36 169.435242 0.051022 0.000000 -7.524020 -2.900091 14.493537 169.435257
37 169.435242 0.051022 0.000000 -7.499510 -2.894930 14.442394 169.435257
[null_rope03_connect]
36 -1.257226 -2.466202 137.391083 146.778168 -84.271317 -133.723206 137.418976
37 -1.257226 -2.466202 137.391083 147.037781 -84.286049 -133.584518 137.418976
[null_rope04_connect]
36 -1.259640 -2.480268 -137.844437 146.778168 -84.271317 -133.723206 137.872513
37 -1.259640 -2.480268 -137.844437 147.037781 -84.286049 -133.584518 137.872513
[Rope3_Seg01]
36 0.000010 0.000038 -0.000114 -170.056076 74.229309 -106.057983 0.000121
37 0.000010 0.000038 -0.000114 -170.361633 74.420624 -106.287018 0.000121
[Rope3_Seg02]
36 139.999924 -0.000119 0.000060 -10.686114 -19.358309 11.374768 139.999924
37 139.999924 -0.000119 0.000060 -10.574967 -19.228249 11.251308 139.999924
[Rope3_Seg03]
36 139.999924 -0.000119 0.000119 -20.388905 -45.669846 23.091669 139.999924
37 139.999924 -0.000119 0.000119 -20.234783 -45.467102 22.909254 139.999924
[Rope3_Seg04]
36 139.999924 0.000119 0.000000 -0.544099 -23.468300 4.475043 139.999924
37 139.999924 0.000119 0.000000 -0.582746 -23.584963 4.516648 139.999924
[Rope3_Seg05]
36 139.999924 -0.000238 0.000060 8.985200 -61.302261 15.762566 139.999924
37 139.999924 -0.000238 0.000060 8.978447 -61.027142 15.566688 139.999924
[Rope3_Seg06]
36 139.999893 -0.000119 -0.000060 11.555064 -42.014572 27.074715 139.999893
37 139.999893 -0.000119 -0.000060 11.562851 -42.362629 27.207363 139.999893
[Rope3_Seg07]
36 139.999771 0.000060 -0.000119 2.945438 -5.166974 6.002676 139.999771
37 139.999771 0.000060 -0.000119 2.957045 -5.191074 6.026399 139.999771
[Rope3_Seg08]
36 139.999985 -0.000060 0.000000 1.476589 -1.949590 2.529301 139.999985
37 139.999985 -0.000060 0.000000 1.479797 -1.955695 2.536592 139.999985
[Rope3_Seg09]
36 90.185997 -0.000179 -0.000060 89.793228 -1.359877 -0.847183 90.185997
37 90.185997 -0.000179 -0.000060 89.793228 -1.359877 -0.847183 90.185997
[R_rear_hand01]
36 103.366196 -6.073594 -10.757982 -156.049316 6.070419 -2.795869 104.101845
37 103.366196 -6.073594 -10.757982 -156.049316 6.070419 -2.795869 104.101845
[R_rear_hand02]
36 100.509819 12.039542 -7.992327 -38.708435 1.958051 5.461186 101.543350
37 100.509819 12.039542 -7.992327 -38.708424 1.958050 5.461185 101.543350
[R_rear_hand03]
36 101.539970 5.215704 5.435467 84.307632 -2.361033 4.099038 101.819031
37 101.539970 5.215704 5.435467 84.307632 -2.361033 4.099038 101.819031
[Rope4_Seg01]
36 -0.000008 0.000023 -0.000206 84.201897 77.542061 -77.018829 0.000207
37 -0.000008 0.000021 -0.000208 84.335274 77.694496 -76.939240 0.000209
[Rope4_Seg02]
36 139.999985 0.000060 0.000119 4.968349 5.640720 -14.564490 139.999985
37 139.999985 0.000060 0.000119 4.928973 5.587819 -14.473204 139.999985
[Rope4_Seg03]
36 139.999924 0.000000 -0.000238 4.861748 11.546411 -48.264812 139.999924
37 139.999924 0.000000 -0.000238 4.886696 11.477094 -47.902618 139.999924
[Rope4_Seg04]
36 139.999985 0.000000 0.000119 -2.929194 3.145717 -36.709564 139.999985
37 139.999985 0.000000 0.000119 -2.914964 3.175972 -36.902985 139.999985
[Rope4_Seg05]
36 139.999802 -0.000060 -0.000119 -9.122075 6.194167 -31.253969 139.999802
37 139.999802 -0.000060 -0.000119 -9.022577 6.141323 -31.056038 139.999802
[Rope4_Seg06]
36 139.999924 0.000000 0.000060 -22.146225 14.712576 -48.343151 139.999924
37 139.999924 0.000000 0.000060 -22.181324 14.673994 -48.471367 139.999924
[Rope4_Seg07]
36 139.999802 0.000000 0.000000 -5.836003 10.040007 -15.009110 139.999802
37 139.999802 0.000000 0.000000 -5.901625 10.104620 -15.142715 139.999802
[Rope4_Seg08]
36 139.999924 0.000000 0.000119 -2.410807 2.567465 -3.189806 139.999924
37 139.999924 0.000000 0.000119 -2.421977 2.591386 -3.215342 139.999924
[Rope4_Seg09]
36 90.185791 0.000060 0.000060 -135.617828 2.228885 0.850567 90.185791
37 90.185791 0.000060 0.000060 -135.617828 2.228885 0.850567 90.185791
[L_rear_hand01]
36 101.696655 -8.392275 -7.654577 -38.746338 0.246096 177.290207 102.329041
37 101.696655 -8.392275 -7.654577 -38.746338 0.246096 177.290207 102.329041
[L_rear_hand02]
36 102.726799 -1.568258 5.773216 84.314880 -1.139137 176.250763 102.900848
37 102.726799 -1.568258 5.773216 84.314880 -1.139137 176.250763 102.900848
[L_rear_hand03]
36 104.552910 9.721220 -10.420293 -155.747955 -4.630845 179.564758 105.519653
37 104.552910 9.721220 -10.420293 -155.747955 -4.630845 179.564758 105.519653
